GSerif01-AuthorTextRegular04.ufo
<glyph name="C" format="1">
  <advance width="714"/>
  <unicode hex="0043"/>
  <outline>
    <contour>
      <point x="58" y="355" type="curve" smooth="yes"/>
      <point x="58" y="138"/>
      <point x="200" y="-10"/>
      <point x="392" y="-10" type="curve" smooth="yes"/>
      <point x="542" y="-10"/>
      <point x="644" y="86"/>
      <point x="677" y="223" type="curve"/>
      <point x="625" y="241" type="line"/>
      <point x="596" y="127"/>
      <point x="519" y="40"/>
      <point x="398" y="40" type="curve" smooth="yes"/>
      <point x="254" y="40"/>
      <point x="156" y="164"/>
      <point x="156" y="355" type="curve" smooth="yes"/>
      <point x="156" y="544"/>
      <point x="254" y="669"/>
      <point x="405" y="669" type="curve" smooth="yes"/>
      <point x="501" y="669"/>
      <point x="571" y="617"/>
      <point x="599" y="558" type="curve"/>
      <point x="606" y="596"/>
      <point x="583" y="620"/>
      <point x="556" y="618" type="curve"/>
      <point x="556" y="508" type="line"/>
      <point x="653" y="508" type="line"/>
      <point x="653" y="606" type="line"/>
      <point x="624" y="658"/>
      <point x="532" y="720"/>
      <point x="405" y="720" type="curve" smooth="yes"/>
      <point x="202" y="720"/>
      <point x="58" y="569"/>
    </contour>
  </outline>
</glyph>
<glyph name="E" format="1">
  <advance width="647"/>
  <unicode hex="0045"/>
  <outline>
    <contour>
      <point x="147" y="0" type="line"/>
      <point x="239" y="0" type="line"/>
      <point x="239" y="710" type="line"/>
      <point x="147" y="710" type="line"/>
    </contour>
    <contour>
      <point x="209" y="388" type="line"/>
      <point x="209" y="338" type="line"/>
      <point x="451" y="338" type="line"/>
      <point x="451" y="388" type="line"/>
    </contour>
    <contour>
      <point x="573" y="710" type="line"/>
      <point x="51" y="710" type="line"/>
      <point x="51" y="669" type="line"/>
      <point x="63" y="669" type="line" smooth="yes"/>
      <point x="110" y="669"/>
      <point x="147" y="662"/>
      <point x="147" y="633" type="curve"/>
      <point x="204" y="659" type="line"/>
      <point x="387" y="659" type="line" smooth="yes"/>
      <point x="473" y="659"/>
      <point x="508" y="650"/>
      <point x="513" y="612" type="curve" smooth="yes"/>
      <point x="525" y="522" type="line"/>
      <point x="573" y="522" type="line"/>
    </contour>
    <contour>
      <point x="590" y="213" type="line"/>
      <point x="541" y="213" type="line"/>
      <point x="526" y="101" type="line" smooth="yes"/>
      <point x="521" y="63"/>
      <point x="485" y="51"/>
      <point x="389" y="51" type="curve" smooth="yes"/>
      <point x="203" y="51" type="line"/>
      <point x="147" y="77" type="line"/>
      <point x="147" y="48"/>
      <point x="110" y="41"/>
      <point x="63" y="41" type="curve" smooth="yes"/>
      <point x="51" y="41" type="line"/>
      <point x="51" y="0" type="line"/>
      <point x="590" y="0" type="line"/>
    </contour>
  </outline>
</glyph>
<glyph name="T" format="1">
  <advance width="706"/>
  <unicode hex="0054"/>
  <outline>
    <contour>
      <point x="307" y="0" type="line"/>
      <point x="400" y="0" type="line"/>
      <point x="400" y="710" type="line"/>
      <point x="307" y="710" type="line"/>
    </contour>
    <contour>
      <point x="670" y="710" type="line"/>
      <point x="36" y="710" type="line"/>
      <point x="36" y="500" type="line"/>
      <point x="85" y="500" type="line"/>
      <point x="96" y="612" type="line" smooth="yes"/>
      <point x="101" y="650"/>
      <point x="137" y="659"/>
      <point x="223" y="659" type="curve" smooth="yes"/>
      <point x="484" y="659" type="line" smooth="yes"/>
      <point x="570" y="659"/>
      <point x="606" y="650"/>
      <point x="610" y="612" type="curve" smooth="yes"/>
      <point x="622" y="500" type="line"/>
      <point x="670" y="500" type="line"/>
    </contour>
    <contour>
      <point x="530" y="0" type="line"/>
      <point x="530" y="41" type="line"/>
      <point x="484" y="41" type="line" smooth="yes"/>
      <point x="436" y="41"/>
      <point x="400" y="48"/>
      <point x="400" y="77" type="curve"/>
      <point x="307" y="77" type="line"/>
      <point x="307" y="48"/>
      <point x="270" y="41"/>
      <point x="223" y="41" type="curve" smooth="yes"/>
      <point x="175" y="41" type="line"/>
      <point x="175" y="0" type="line"/>
    </contour>
  </outline>
</glyph>
<glyph name="Z" format="1">
  <advance width="653"/>
  <unicode hex="005A"/>
  <outline>
    <contour>
      <point x="396" y="51" type="line" smooth="yes"/>
      <point x="492" y="51"/>
      <point x="528" y="63"/>
      <point x="533" y="101" type="curve" smooth="yes"/>
      <point x="548" y="215" type="line"/>
      <point x="596" y="215" type="line"/>
      <point x="596" y="0" type="line"/>
      <point x="59" y="0" type="line"/>
      <point x="59" y="67" type="line"/>
      <point x="501" y="676" type="line"/>
      <point x="519" y="659" type="line"/>
      <point x="263" y="659" type="line" smooth="yes"/>
      <point x="177" y="659"/>
      <point x="142" y="650"/>
      <point x="136" y="612" type="curve" smooth="yes"/>
      <point x="125" y="524" type="line"/>
      <point x="77" y="524" type="line"/>
      <point x="77" y="710" type="line"/>
      <point x="582" y="710" type="line"/>
      <point x="582" y="646" type="line"/>
      <point x="128" y="24" type="line"/>
      <point x="114" y="51" type="line"/>
    </contour>
  </outline>
</glyph>
<glyph name="f" format="1">
  <advance width="461"/>
  <unicode hex="0066"/>
  <outline>
    <contour>
      <point x="39" y="40" type="line"/>
      <point x="39" y="0" type="line"/>
      <point x="377" y="0" type="line"/>
      <point x="377" y="40" type="line"/>
      <point x="346" y="40" type="line" smooth="yes"/>
      <point x="288" y="40"/>
      <point x="244" y="43"/>
      <point x="244" y="79" type="curve"/>
      <point x="155" y="76" type="line"/>
      <point x="155" y="47"/>
      <point x="120" y="40"/>
      <point x="61" y="40" type="curve"/>
    </contour>
    <contour>
      <point x="39" y="540" type="line"/>
      <point x="39" y="490" type="line"/>
      <point x="422" y="490" type="line"/>
      <point x="422" y="540" type="line"/>
    </contour>
    <contour>
      <point x="445" y="616" type="line"/>
      <point x="534" y="616" type="line"/>
      <point x="534" y="688" type="line"/>
      <point x="509" y="728"/>
      <point x="448" y="760"/>
      <point x="362" y="760" type="curve" smooth="yes"/>
      <point x="243" y="760"/>
      <point x="155" y="688"/>
      <point x="155" y="558" type="curve" smooth="yes"/>
      <point x="155" y="0" type="line"/>
      <point x="244" y="0" type="line"/>
      <point x="244" y="558" type="line" smooth="yes"/>
      <point x="244" y="663"/>
      <point x="288" y="709"/>
      <point x="362" y="709" type="curve" smooth="yes"/>
      <point x="416" y="709"/>
      <point x="458" y="688"/>
      <point x="480" y="640" type="curve"/>
      <point x="492" y="674"/>
      <point x="472" y="699"/>
      <point x="445" y="698" type="curve"/>
    </contour>
  </outline>
</glyph>
<glyph name="i" format="1">
  <advance width="415"/>
  <unicode hex="0069"/>
  <outline>
    <contour>
      <point x="213" y="640" type="curve" smooth="yes"/>
      <point x="248" y="640"/>
      <point x="274" y="663"/>
      <point x="274" y="701" type="curve" smooth="yes"/>
      <point x="274" y="738"/>
      <point x="248" y="761"/>
      <point x="213" y="761" type="curve" smooth="yes"/>
      <point x="178" y="761"/>
      <point x="152" y="738"/>
      <point x="152" y="701" type="curve" smooth="yes"/>
      <point x="152" y="663"/>
      <point x="178" y="640"/>
    </contour>
    <contour>
      <point x="172" y="0" type="line"/>
      <point x="260" y="0" type="line"/>
      <point x="260" y="540" type="line"/>
      <point x="46" y="540" type="line"/>
      <point x="46" y="497" type="line"/>
      <point x="83" y="495" type="line" smooth="yes"/>
      <point x="146" y="492"/>
      <point x="172" y="479"/>
      <point x="172" y="450" type="curve" smooth="yes"/>
    </contour>
    <contour>
      <point x="46" y="0" type="line"/>
      <point x="386" y="0" type="line"/>
      <point x="386" y="39" type="line"/>
      <point x="368" y="39" type="line"/>
      <point x="299" y="39"/>
      <point x="260" y="46"/>
      <point x="260" y="75" type="curve"/>
      <point x="172" y="75" type="line"/>
      <point x="172" y="46"/>
      <point x="133" y="39"/>
      <point x="64" y="39" type="curve"/>
      <point x="46" y="39" type="line"/>
    </contour>
  </outline>
</glyph>
<glyph name="l" format="1">
  <advance width="406"/>
  <unicode hex="006C"/>
  <outline>
    <contour>
      <point x="172" y="0" type="line"/>
      <point x="260" y="0" type="line"/>
      <point x="260" y="750" type="line"/>
      <point x="46" y="750" type="line"/>
      <point x="46" y="704" type="line"/>
      <point x="83" y="702" type="line" smooth="yes"/>
      <point x="147" y="699"/>
      <point x="172" y="686"/>
      <point x="172" y="657" type="curve" smooth="yes"/>
    </contour>
    <contour>
      <point x="46" y="0" type="line"/>
      <point x="386" y="0" type="line"/>
      <point x="386" y="39" type="line"/>
      <point x="368" y="39" type="line"/>
      <point x="299" y="39"/>
      <point x="260" y="46"/>
      <point x="260" y="75" type="curve"/>
      <point x="172" y="75" type="line"/>
      <point x="172" y="46"/>
      <point x="133" y="39"/>
      <point x="64" y="39" type="curve"/>
      <point x="46" y="39" type="line"/>
    </contour>
  </outline>
</glyph>
<glyph name="n" format="1">
  <advance width="683"/>
  <unicode hex="006E"/>
  <outline>
    <contour>
      <point x="46" y="0" type="line"/>
      <point x="300" y="0" type="line"/>
      <point x="300" y="39" type="line"/>
      <point x="299" y="39" type="line"/>
      <point x="271" y="39"/>
      <point x="222" y="42"/>
      <point x="222" y="49" type="curve"/>
      <point x="133" y="75" type="line"/>
      <point x="133" y="46"/>
      <point x="97" y="39"/>
      <point x="48" y="39" type="curve"/>
      <point x="46" y="39" type="line"/>
    </contour>
    <contour>
      <point x="400" y="0" type="line"/>
      <point x="654" y="0" type="line"/>
      <point x="654" y="39" type="line"/>
      <point x="652" y="39" type="line"/>
      <point x="604" y="39"/>
      <point x="568" y="46"/>
      <point x="568" y="75" type="curve"/>
      <point x="479" y="49" type="line"/>
      <point x="479" y="42"/>
      <point x="430" y="39"/>
      <point x="402" y="39" type="curve"/>
      <point x="400" y="39" type="line"/>
    </contour>
    <contour>
      <point x="384" y="493" type="curve" smooth="yes"/>
      <point x="456" y="493"/>
      <point x="479" y="459"/>
      <point x="479" y="380" type="curve" smooth="yes"/>
      <point x="479" y="0" type="line"/>
      <point x="568" y="0" type="line"/>
      <point x="568" y="389" type="line" smooth="yes"/>
      <point x="568" y="500"/>
      <point x="499" y="550"/>
      <point x="399" y="550" type="curve" smooth="yes"/>
      <point x="297" y="550"/>
      <point x="235" y="495"/>
      <point x="169" y="382" type="curve"/>
      <point x="195" y="358" type="line"/>
      <point x="244" y="446"/>
      <point x="308" y="493"/>
    </contour>
    <contour>
      <point x="46" y="540" type="line"/>
      <point x="46" y="497" type="line"/>
      <point x="58" y="495" type="line" smooth="yes"/>
      <point x="109" y="486"/>
      <point x="133" y="479"/>
      <point x="133" y="450" type="curve" smooth="yes"/>
      <point x="133" y="0" type="line"/>
      <point x="222" y="0" type="line"/>
      <point x="222" y="424" type="line"/>
      <point x="213" y="434" type="line"/>
      <point x="213" y="540" type="line"/>
    </contour>
  </outline>
</glyph>
<glyph name="q" format="1">
  <advance width="644"/>
  <unicode hex="0071"/>
  <outline>
    <contour>
      <point x="538" y="544" type="line"/>
      <point x="484" y="544" type="line"/>
      <point x="456" y="436" type="line"/>
      <point x="449" y="420" type="line"/>
      <point x="449" y="-210" type="line"/>
      <point x="538" y="-210" type="line"/>
    </contour>
    <contour>
      <point x="147" y="267" type="curve" smooth="yes"/>
      <point x="147" y="404"/>
      <point x="196" y="494"/>
      <point x="293" y="494" type="curve" smooth="yes"/>
      <point x="371" y="494"/>
      <point x="430" y="449"/>
      <point x="473" y="350" type="curve"/>
      <point x="510" y="369" type="line"/>
      <point x="448" y="498"/>
      <point x="390" y="550"/>
      <point x="291" y="550" type="curve" smooth="yes"/>
      <point x="145" y="550"/>
      <point x="53" y="434"/>
      <point x="53" y="267" type="curve" smooth="yes"/>
      <point x="53" y="100"/>
      <point x="143" y="-11"/>
      <point x="284" y="-11" type="curve" smooth="yes"/>
      <point x="384" y="-11"/>
      <point x="438" y="50"/>
      <point x="508" y="177" type="curve"/>
      <point x="472" y="197" type="line"/>
      <point x="429" y="100"/>
      <point x="370" y="44"/>
      <point x="290" y="44" type="curve" smooth="yes"/>
      <point x="195" y="44"/>
      <point x="147" y="132"/>
    </contour>
    <contour>
      <point x="625" y="-226" type="line"/>
      <point x="625" y="-187" type="line"/>
      <point x="622" y="-187" type="line"/>
      <point x="573" y="-187"/>
      <point x="538" y="-180"/>
      <point x="538" y="-151" type="curve"/>
      <point x="449" y="-177" type="line"/>
      <point x="449" y="-184"/>
      <point x="401" y="-187"/>
      <point x="353" y="-187" type="curve" smooth="yes"/>
      <point x="344" y="-187" type="line"/>
      <point x="344" y="-226" type="line"/>
    </contour>
  </outline>
</glyph>
<glyph name="s" format="1">
  <advance width="498"/>
  <unicode hex="0073"/>
  <outline>
    <contour>
      <point x="378" y="138" type="curve"/>
      <point x="378" y="75"/>
      <point x="336" y="40"/>
      <point x="257" y="40" type="curve" smooth="yes"/>
      <point x="186" y="40"/>
      <point x="131" y="56"/>
      <point x="101" y="114" type="curve"/>
      <point x="83" y="73"/>
      <point x="88" y="56"/>
      <point x="124" y="41" type="curve"/>
      <point x="124" y="163" type="line"/>
      <point x="37" y="163" type="line"/>
      <point x="37" y="72" type="line"/>
      <point x="80" y="19"/>
      <point x="157" y="-11"/>
      <point x="259" y="-11" type="curve" smooth="yes"/>
      <point x="389" y="-11"/>
      <point x="461" y="59"/>
      <point x="461" y="151" type="curve" smooth="yes"/>
      <point x="461" y="352"/>
      <point x="139" y="267"/>
      <point x="139" y="408" type="curve" smooth="yes"/>
      <point x="139" y="458"/>
      <point x="175" y="499"/>
      <point x="251" y="499" type="curve" smooth="yes"/>
      <point x="304" y="499"/>
      <point x="350" y="478"/>
      <point x="373" y="431" type="curve"/>
      <point x="381" y="468"/>
      <point x="371" y="492"/>
      <point x="344" y="489" type="curve"/>
      <point x="344" y="397" type="line"/>
      <point x="430" y="397" type="line"/>
      <point x="430" y="397"/>
      <point x="430" y="475"/>
      <point x="430" y="476" type="curve"/>
      <point x="402" y="519"/>
      <point x="338" y="550"/>
      <point x="250" y="550" type="curve" smooth="yes"/>
      <point x="131" y="550"/>
      <point x="59" y="485"/>
      <point x="59" y="392" type="curve" smooth="yes"/>
      <point x="59" y="184"/>
      <point x="378" y="271"/>
    </contour>
  </outline>
</glyph>
<glyph name="t" format="1">
  <advance width="430"/>
  <unicode hex="0074"/>
  <outline>
    <contour>
      <point x="20" y="490" type="line"/>
      <point x="20" y="535" type="line"/>
      <point x="22" y="535" type="line" smooth="yes"/>
      <point x="92" y="535"/>
      <point x="134" y="545"/>
      <point x="134" y="596" type="curve"/>
      <point x="172" y="540" type="line"/>
      <point x="388" y="540" type="line"/>
      <point x="388" y="490" type="line"/>
    </contour>
    <contour>
      <point x="211" y="175" type="line" smooth="yes"/>
      <point x="211" y="80"/>
      <point x="257" y="45"/>
      <point x="319" y="45" type="curve" smooth="yes"/>
      <point x="352" y="45"/>
      <point x="376" y="51"/>
      <point x="401" y="60" type="curve"/>
      <point x="401" y="3" type="line"/>
      <point x="379" y="-4"/>
      <point x="347" y="-11"/>
      <point x="311" y="-11" type="curve" smooth="yes"/>
      <point x="218" y="-11"/>
      <point x="122" y="29"/>
      <point x="122" y="174" type="curve" smooth="yes"/>
      <point x="122" y="528" type="line"/>
      <point x="134" y="535" type="line"/>
      <point x="134" y="681" type="line"/>
      <point x="211" y="681" type="line"/>
    </contour>
  </outline>
</glyph>
<glyph name="y" format="1">
  <advance width="637"/>
  <unicode hex="0079"/>
  <outline>
    <contour>
      <point x="338" y="11" type="line"/>
      <point x="350" y="48" type="line"/>
      <point x="156" y="528" type="line"/>
      <point x="66" y="526" type="line"/>
      <point x="292" y="-18" type="line"/>
    </contour>
    <contour>
      <point x="367" y="17" type="curve" smooth="yes"/>
      <point x="570" y="526" type="line"/>
      <point x="503" y="528" type="line"/>
      <point x="324" y="72" type="line"/>
      <point x="312" y="51" type="line" smooth="yes"/>
      <point x="244" y="-130"/>
      <point x="195" y="-146"/>
      <point x="63" y="-146" type="curve"/>
      <point x="63" y="-232" type="line"/>
      <point x="233" y="-233"/>
      <point x="297" y="-158"/>
    </contour>
    <contour>
      <point x="257" y="540" type="line"/>
      <point x="14" y="540" type="line"/>
      <point x="14" y="501" type="line"/>
      <point x="16" y="501" type="line"/>
      <point x="60" y="501"/>
      <point x="80" y="492"/>
      <point x="92" y="465" type="curve"/>
      <point x="172" y="491" type="line"/>
      <point x="172" y="498"/>
      <point x="223" y="501"/>
      <point x="250" y="501" type="curve"/>
      <point x="257" y="501" type="line"/>
    </contour>
    <contour>
      <point x="402" y="540" type="line"/>
      <point x="402" y="501" type="line"/>
      <point x="409" y="501" type="line"/>
      <point x="450" y="501"/>
      <point x="484" y="495"/>
      <point x="484" y="480" type="curve"/>
      <point x="542" y="456" type="line"/>
      <point x="553" y="484"/>
      <point x="575" y="501"/>
      <point x="621" y="501" type="curve"/>
      <point x="623" y="501" type="line"/>
      <point x="623" y="540" type="line"/>
    </contour>
  </outline>
</glyph>
<glyph name="z" format="1">
  <advance width="521"/>
  <unicode hex="007A"/>
  <outline>
    <contour>
      <point x="104" y="51" type="line"/>
      <point x="122" y="36" type="line"/>
      <point x="469" y="486" type="line"/>
      <point x="469" y="540" type="line"/>
      <point x="53" y="540" type="line"/>
      <point x="53" y="377" type="line"/>
      <point x="102" y="377" type="line"/>
      <point x="114" y="444" type="line" smooth="yes"/>
      <point x="120" y="482"/>
      <point x="151" y="490"/>
      <point x="224" y="490" type="curve" smooth="yes"/>
      <point x="405" y="490" type="line"/>
      <point x="385" y="502" type="line"/>
      <point x="39" y="58" type="line"/>
      <point x="39" y="0" type="line"/>
      <point x="480" y="0" type="line"/>
      <point x="480" y="174" type="line"/>
      <point x="428" y="174" type="line"/>
      <point x="417" y="96" type="line" smooth="yes"/>
      <point x="412" y="59"/>
      <point x="380" y="51"/>
      <point x="307" y="51" type="curve" smooth="yes"/>
    </contour>
  </outline>
</glyph>
<glyph name="E.alt" format="1">
  <advance width="642"/>
  <outline>
    <contour>
      <point x="147" y="0" type="line"/>
      <point x="239" y="0" type="line"/>
      <point x="239" y="710" type="line"/>
      <point x="147" y="710" type="line"/>
    </contour>
    <contour>
      <point x="209" y="388" type="line"/>
      <point x="209" y="338" type="line"/>
      <point x="435" y="338" type="line"/>
      <point x="435" y="388" type="line"/>
    </contour>
    <contour>
      <point x="566" y="710" type="line"/>
      <point x="51" y="710" type="line"/>
      <point x="51" y="669" type="line"/>
      <point x="63" y="669" type="line" smooth="yes"/>
      <point x="110" y="669"/>
      <point x="147" y="662"/>
      <point x="147" y="633" type="curve"/>
      <point x="204" y="659" type="line"/>
      <point x="380" y="659" type="line" smooth="yes"/>
      <point x="466" y="659"/>
      <point x="501" y="650"/>
      <point x="506" y="612" type="curve" smooth="yes"/>
      <point x="518" y="522" type="line"/>
      <point x="566" y="522" type="line"/>
    </contour>
    <contour>
      <point x="588" y="213" type="line"/>
      <point x="539" y="213" type="line"/>
      <point x="525" y="101" type="line" smooth="yes"/>
      <point x="520" y="63"/>
      <point x="483" y="51"/>
      <point x="387" y="51" type="curve" smooth="yes"/>
      <point x="203" y="51" type="line"/>
      <point x="147" y="77" type="line"/>
      <point x="147" y="48"/>
      <point x="110" y="41"/>
      <point x="63" y="41" type="curve" smooth="yes"/>
      <point x="51" y="41" type="line"/>
      <point x="51" y="0" type="line"/>
      <point x="588" y="0" type="line"/>
    </contour>
    <contour>
      <point x="458" y="267" type="line"/>
      <point x="458" y="460" type="line"/>
      <point x="417" y="460" type="line"/>
      <point x="417" y="454" type="line"/>
      <point x="417" y="419"/>
      <point x="407" y="388"/>
      <point x="378" y="388" type="curve"/>
      <point x="378" y="338" type="line"/>
      <point x="407" y="338"/>
      <point x="417" y="307"/>
      <point x="417" y="273" type="curve"/>
      <point x="417" y="267" type="line"/>
    </contour>
  </outline>
</glyph>
<glyph name="K.alt" format="1">
  <advance width="775"/>
  <outline>
    <contour>
      <point x="588" y="0" type="line"/>
      <point x="709" y="3" type="line"/>
      <point x="686" y="25" type="line"/>
      <point x="386" y="392" type="line"/>
      <point x="376" y="358" type="line"/>
      <point x="659" y="685" type="line"/>
      <point x="685" y="707" type="line"/>
      <point x="604" y="710" type="line"/>
      <point x="310" y="367" type="line"/>
      <point x="308" y="348" type="line"/>
    </contour>
    <contour>
      <point x="51" y="41" type="line"/>
      <point x="51" y="0" type="line"/>
      <point x="334" y="0" type="line"/>
      <point x="334" y="41" type="line"/>
      <point x="324" y="41" type="line" smooth="yes"/>
      <point x="287" y="41"/>
      <point x="240" y="44"/>
      <point x="240" y="51" type="curve"/>
      <point x="147" y="77" type="line"/>
      <point x="147" y="48"/>
      <point x="110" y="41"/>
      <point x="63" y="41" type="curve" smooth="yes"/>
    </contour>
    <contour>
      <point x="51" y="710" type="line"/>
      <point x="51" y="669" type="line"/>
      <point x="63" y="669" type="line" smooth="yes"/>
      <point x="110" y="669"/>
      <point x="147" y="662"/>
      <point x="147" y="633" type="curve"/>
      <point x="240" y="659" type="line"/>
      <point x="240" y="666"/>
      <point x="287" y="669"/>
      <point x="324" y="669" type="curve" smooth="yes"/>
      <point x="334" y="669" type="line"/>
      <point x="334" y="710" type="line"/>
    </contour>
    <contour>
      <point x="748" y="41" type="line"/>
      <point x="731" y="41" type="line" smooth="yes"/>
      <point x="675" y="41"/>
      <point x="664" y="48"/>
      <point x="638" y="77" type="curve"/>
      <point x="542" y="51" type="line"/>
      <point x="542" y="44"/>
      <point x="494" y="41"/>
      <point x="455" y="41" type="curve" smooth="yes"/>
      <point x="444" y="41" type="line"/>
      <point x="444" y="0" type="line"/>
      <point x="748" y="0" type="line"/>
    </contour>
    <contour>
      <point x="717" y="710" type="line"/>
      <point x="458" y="710" type="line"/>
      <point x="458" y="669" type="line"/>
      <point x="470" y="669" type="line" smooth="yes"/>
      <point x="507" y="669"/>
      <point x="556" y="666"/>
      <point x="556" y="658" type="curve"/>
      <point x="610" y="633" type="line"/>
      <point x="636" y="662"/>
      <point x="652" y="669"/>
      <point x="700" y="669" type="curve" smooth="yes"/>
      <point x="717" y="669" type="line"/>
    </contour>
    <contour>
      <point x="147" y="0" type="line"/>
      <point x="240" y="0" type="line"/>
      <point x="240" y="710" type="line"/>
      <point x="147" y="710" type="line"/>
    </contour>
    <contour>
      <point x="212" y="389" type="line"/>
      <point x="212" y="336" type="line"/>
      <point x="356" y="336" type="line"/>
      <point x="355" y="389" type="line"/>
    </contour>
  </outline>
</glyph>
<glyph name="Q.alt" format="1">
  <advance width="756"/>
  <outline>
    <contour>
      <point x="356" y="222" type="line"/>
      <point x="478" y="40"/>
      <point x="554" y="-4"/>
      <point x="754" y="0" type="curve"/>
      <point x="754" y="70" type="line"/>
      <point x="578" y="63"/>
      <point x="517" y="80"/>
      <point x="403" y="250" type="curve"/>
    </contour>
    <contour>
      <point x="378" y="-10" type="curve" smooth="yes"/>
      <point x="563" y="-10"/>
      <point x="698" y="135"/>
      <point x="698" y="355" type="curve" smooth="yes"/>
      <point x="698" y="574"/>
      <point x="563" y="720"/>
      <point x="378" y="720" type="curve" smooth="yes"/>
      <point x="191" y="720"/>
      <point x="58" y="575"/>
      <point x="58" y="355" type="curve" smooth="yes"/>
      <point x="58" y="136"/>
      <point x="191" y="-10"/>
    </contour>
    <contour>
      <point x="378" y="40" type="curve" smooth="yes"/>
      <point x="243" y="40"/>
      <point x="158" y="158"/>
      <point x="158" y="355" type="curve" smooth="yes"/>
      <point x="158" y="552"/>
      <point x="243" y="670"/>
      <point x="378" y="670" type="curve" smooth="yes"/>
      <point x="513" y="670"/>
      <point x="597" y="552"/>
      <point x="597" y="355" type="curve" smooth="yes"/>
      <point x="597" y="153"/>
      <point x="513" y="40"/>
    </contour>
  </outline>
</glyph>
<glyph name="Q.alt5" format="1">
  <advance width="756"/>
  <outline>
    <contour>
      <point x="378" y="-10" type="curve" smooth="yes"/>
      <point x="563" y="-10"/>
      <point x="698" y="135"/>
      <point x="698" y="355" type="curve" smooth="yes"/>
      <point x="698" y="574"/>
      <point x="563" y="720"/>
      <point x="378" y="720" type="curve" smooth="yes"/>
      <point x="191" y="720"/>
      <point x="58" y="575"/>
      <point x="58" y="355" type="curve" smooth="yes"/>
      <point x="58" y="136"/>
      <point x="191" y="-10"/>
    </contour>
    <contour>
      <point x="378" y="40" type="curve" smooth="yes"/>
      <point x="243" y="40"/>
      <point x="158" y="158"/>
      <point x="158" y="355" type="curve" smooth="yes"/>
      <point x="158" y="552"/>
      <point x="243" y="670"/>
      <point x="378" y="670" type="curve" smooth="yes"/>
      <point x="513" y="670"/>
      <point x="597" y="552"/>
      <point x="597" y="355" type="curve" smooth="yes"/>
      <point x="597" y="158"/>
      <point x="513" y="40"/>
    </contour>
    <contour>
      <point x="345" y="14" type="line"/>
      <point x="427" y="-96"/>
      <point x="514" y="-152"/>
      <point x="678" y="-182" type="curve"/>
      <point x="706" y="-88" type="line"/>
      <point x="572" y="-79"/>
      <point x="465" y="-57"/>
      <point x="391" y="36" type="curve"/>
    </contour>
  </outline>
</glyph>
<glyph name="five.alt2" format="1">
  <advance width="616"/>
  <outline>
    <contour>
      <point x="98" y="710" type="line"/>
      <point x="516" y="710" type="line"/>
      <point x="516" y="540" type="line"/>
      <point x="462" y="540" type="line"/>
      <point x="462" y="638" type="line"/>
      <point x="462" y="638" type="line"/>
      <point x="141" y="638" type="line"/>
      <point x="157" y="659" type="line"/>
      <point x="157" y="409" type="line"/>
      <point x="98" y="409" type="line"/>
    </contour>
    <contour>
      <point x="259" y="430" type="line" smooth="yes"/>
      <point x="472" y="430"/>
      <point x="566" y="346"/>
      <point x="566" y="213" type="curve" smooth="yes"/>
      <point x="566" y="64"/>
      <point x="449" y="-10"/>
      <point x="310" y="-10" type="curve" smooth="yes"/>
      <point x="166" y="-10"/>
      <point x="61" y="61"/>
      <point x="44" y="205" type="curve"/>
      <point x="140" y="205" type="line"/>
      <point x="157" y="92"/>
      <point x="219" y="45"/>
      <point x="310" y="45" type="curve" smooth="yes"/>
      <point x="399" y="45"/>
      <point x="471" y="92"/>
      <point x="471" y="213" type="curve" smooth="yes"/>
      <point x="471" y="334"/>
      <point x="396" y="376"/>
      <point x="240" y="376" type="curve" smooth="yes"/>
      <point x="98" y="376" type="line"/>
      <point x="98" y="430" type="line"/>
    </contour>
  </outline>
</glyph>
<glyph name="one.alt" format="1">
  <advance width="438"/>
  <outline>
    <contour>
      <point x="187" y="698" type="line"/>
      <point x="187" y="0" type="line"/>
      <point x="280" y="0" type="line"/>
      <point x="280" y="710" type="line"/>
      <point x="196" y="710" type="line"/>
      <point x="58" y="678" type="line"/>
      <point x="58" y="624" type="line"/>
      <point x="258" y="662" type="line"/>
    </contour>
  </outline>
</glyph>
<glyph name="seven.old" format="1">
  <advance width="526"/>
  <outline>
    <contour>
      <point x="105" y="-188" type="line"/>
      <point x="294" y="68"/>
      <point x="420" y="270"/>
      <point x="420" y="483" type="curve"/>
      <point x="438" y="454" type="line"/>
      <point x="96" y="454" type="line"/>
      <point x="101" y="475" type="line"/>
      <point x="101" y="322" type="line"/>
      <point x="44" y="322" type="line"/>
      <point x="44" y="528" type="line"/>
      <point x="481" y="528" type="line"/>
      <point x="481" y="486" type="line" smooth="yes"/>
      <point x="481" y="256"/>
      <point x="383" y="58"/>
      <point x="219" y="-188" type="curve"/>
    </contour>
  </outline>
</glyph>
<glyph name="zero.old" format="1">
  <advance width="642"/>
  <outline>
    <contour>
      <point x="321" y="537" type="curve"/>
      <point x="167" y="537"/>
      <point x="43" y="422"/>
      <point x="43" y="263" type="curve" smooth="yes"/>
      <point x="43" y="104"/>
      <point x="167" y="-12"/>
      <point x="321" y="-12" type="curve"/>
      <point x="474" y="-12"/>
      <point x="598" y="104"/>
      <point x="598" y="262" type="curve" smooth="yes"/>
      <point x="598" y="421"/>
      <point x="474" y="537"/>
    </contour>
    <contour>
      <point x="321" y="482" type="curve"/>
      <point x="426" y="482"/>
      <point x="502" y="394"/>
      <point x="502" y="262" type="curve" smooth="yes"/>
      <point x="502" y="130"/>
      <point x="426" y="43"/>
      <point x="321" y="43" type="curve"/>
      <point x="215" y="43"/>
      <point x="139" y="131"/>
      <point x="139" y="263" type="curve" smooth="yes"/>
      <point x="139" y="395"/>
      <point x="215" y="482"/>
    </contour>
  </outline>
</glyph>
